<svg xmlns="http://www.w3.org/2000/svg" width="22" height="22" fill="none" viewBox="0 0 22 22">
    <path fill="#F5222D" d="M15.409 6.579a.774.774 0 0 0-1.094.002L11 9.904 7.685 6.581a.773.773 0 0 0-1.096 1.091L9.91 11l-3.32 3.328a.774.774 0 0 0 1.096 1.091L11 12.096l3.315 3.325a.77.77 0 0 0 1.094.002c.303-.3.303-.79.002-1.093L12.09 11l3.318-3.328a.772.772 0 0 0 0-1.093zM11 0C4.924 0 0 4.924 0 11s4.924 11 11 11 11-4.924 11-11S17.076 0 11 0zm6.684 17.684a9.404 9.404 0 0 1-3.006 2.026 9.363 9.363 0 0 1-3.678.743 9.398 9.398 0 0 1-3.678-.741 9.462 9.462 0 0 1-3.006-2.026A9.403 9.403 0 0 1 2.29 14.68 9.38 9.38 0 0 1 1.547 11c0-1.276.25-2.514.741-3.678a9.463 9.463 0 0 1 2.026-3.006A9.404 9.404 0 0 1 7.32 2.29 9.38 9.38 0 0 1 11 1.547c1.276 0 2.514.25 3.678.741a9.463 9.463 0 0 1 3.006 2.026A9.404 9.404 0 0 1 19.71 7.32a9.381 9.381 0 0 1 .743 3.68 9.398 9.398 0 0 1-2.77 6.684z"/>
</svg>
