<svg xmlns="http://www.w3.org/2000/svg" width="14" height="14" fill="none" viewBox="0 0 14 14">
    <path fill="#fff" d="M7 0a7 7 0 0 0-7 7 7 7 0 0 0 7 7 7 7 0 0 0 7-7 7 7 0 0 0-7-7zm4.253 11.253a5.984 5.984 0 0 1-1.912 1.29A5.959 5.959 0 0 1 7 13.016a5.98 5.98 0 0 1-4.253-1.761 5.985 5.985 0 0 1-1.29-1.913A5.97 5.97 0 0 1 .984 7a5.981 5.981 0 0 1 1.761-4.253 5.984 5.984 0 0 1 1.913-1.29A5.97 5.97 0 0 1 7 .984a5.981 5.981 0 0 1 4.253 1.761 5.984 5.984 0 0 1 1.29 1.913A5.97 5.97 0 0 1 13.016 7a5.98 5.98 0 0 1-1.763 4.253zM8.616 9.647H7.451V4.86a.492.492 0 0 0-.492-.492H5.647a.492.492 0 1 0 0 .985h.82v4.294H5.302a.492.492 0 1 0 0 .984h3.314a.492.492 0 1 0 0-.984zm-2.15-6.632a.492.492 0 1 0 .985 0 .492.492 0 0 0-.984 0z"/>
</svg>
