<svg xmlns="http://www.w3.org/2000/svg" width="46" height="25" fill="none" viewBox="0 0 46 25">
    <path fill="#FF272C" d="M34.423 18.983a6.664 6.664 0 0 1-1.677-.216c-3.313-.859-6.031-3.396-7.025-6.743v-.16c1.17-2.921 3.47-5.217 6.358-6.343a6.657 6.657 0 0 1 2.344-.427c3.725 0 6.788 3.134 6.788 6.944s-3.063 6.945-6.788 6.945zm-14.087-6.959c-.992 3.347-3.712 5.885-7.024 6.743a6.657 6.657 0 0 1-1.677.216c-3.725 0-6.79-3.136-6.79-6.945 0-3.81 3.065-6.944 6.79-6.944.8 0 1.593.144 2.344.427 2.887 1.126 5.19 3.421 6.357 6.343v.16zM34.479 0c-1.341 0-2.67.239-3.932.705a15.4 15.4 0 0 0-7.52 5.84A15.377 15.377 0 0 0 15.508.703 11.332 11.332 0 0 0 11.579 0C5.225 0 0 5.346 0 11.843c0 6.496 5.226 11.841 11.576 11.841.674 0 1.345-.06 2.01-.178l.823-.2a16.358 16.358 0 0 0 8.619-6.404 16.351 16.351 0 0 0 8.619 6.402l.823.2c.662.12 1.336.18 2.01.18 6.349 0 11.575-5.345 11.575-11.841C46.055 5.347 40.829 0 34.479 0z"/>
</svg>
