<svg width="140" height="140" fill="none" xmlns="http://www.w3.org/2000/svg"><path d="M4 68c0-30.17 0-45.25 9.37-54.63C22.75 4 37.83 4 68 4h4c30.17 0 45.25 0 54.63 9.37C136 22.75 136 37.83 136 68v4c0 30.17 0 45.25-9.37 54.63C117.25 136 102.17 136 72 136h-4c-30.17 0-45.25 0-54.63-9.37C4 117.25 4 102.17 4 72v-4z" fill="#040B1D"/><path fill-rule="evenodd" clip-rule="evenodd" d="M68.63 42.37c2.04 1.33 5.64 4.43 9.5 8.28 3.79 3.77 6.85 7.3 8.22 9.35a17.7 17.7 0 01.1 19.86c-1.33 2.03-4.45 5.62-8.32 9.48-3.87 3.86-7.48 6.97-9.51 8.3a17.86 17.86 0 01-19.94-.1c-2.06-1.38-5.59-4.43-9.37-8.2-3.85-3.84-6.96-7.42-8.3-9.45a17.7 17.7 0 01-.26-19.36c1.15-1.93 4.43-5.76 8.56-9.88 4.14-4.12 7.97-7.4 9.91-8.53a17.86 17.86 0 0119.41.25z" fill="url(#paint0_radial)"/><path fill-rule="evenodd" clip-rule="evenodd" d="M95.35 48.74c1.63 1.06 4.5 3.54 7.6 6.62 3.02 3.02 5.48 5.84 6.58 7.48 3.27 4.77 3.3 11.1.07 15.89-1.06 1.62-3.56 4.5-6.66 7.59-3.1 3.08-5.98 5.57-7.6 6.63a14.29 14.29 0 01-15.96-.08c-1.65-1.1-4.47-3.54-7.49-6.56-3.08-3.07-5.57-5.93-6.64-7.56a14.17 14.17 0 01-.2-15.49c.9-1.54 3.53-4.6 6.84-7.9 3.31-3.3 6.38-5.91 7.93-6.83 4.73-2.99 10.86-2.92 15.53.2z" fill="url(#paint1_radial)"/><path fill-rule="evenodd" clip-rule="evenodd" d="M77.35 49.82l1.16 1.15c3.79 3.77 6.85 7.3 8.23 9.34a17.7 17.7 0 01.09 19.87c-1.33 2.03-4.45 5.62-8.32 9.48l-1.16 1.14a81.18 81.18 0 01-5.46-5.01c-3.08-3.07-5.57-5.94-6.64-7.56a14.16 14.16 0 01-.2-15.5c.9-1.54 3.53-4.6 6.84-7.9 2-2 3.92-3.74 5.46-5z" fill="#FF0D2A"/><defs><radialGradient id="paint0_radial" cx="0" cy="0" r="1" gradientUnits="userSpaceOnUse" gradientTransform="matrix(-62.3114 0 0 -62.1104 89.91 71.48)"><stop offset=".37" stop-color="#FF0D0D" stop-opacity=".51"/><stop offset="1" stop-color="#FF0D2A"/></radialGradient><radialGradient id="paint1_radial" cx="0" cy="0" r="1" gradientUnits="userSpaceOnUse" gradientTransform="matrix(45.6612 0 0 45.5139 66.2 70.72)"><stop offset=".33" stop-color="red" stop-opacity=".38"/><stop offset="1" stop-color="#FF001F" stop-opacity=".88"/></radialGradient></defs></svg>