<svg width="512" height="512" viewBox="0 0 512 512" fill="none" xmlns="http://www.w3.org/2000/svg">
<mask id="mask0" mask-type="alpha" maskUnits="userSpaceOnUse" x="0" y="0" width="512" height="512">
<circle cx="256" cy="256" r="256" fill="black"/>
</mask>
<g mask="url(#mask0)">
<circle cx="256" cy="256" r="256" fill="black"/>
<path d="M340.458 307.458C336.27 307.458 332.095 306.93 328.028 305.903C303.477 299.709 283.33 281.43 275.962 257.311V256.157C284.628 235.108 301.676 218.564 323.087 210.449C328.653 208.413 334.535 207.372 340.458 207.372C368.067 207.372 390.769 229.956 390.769 257.411C390.769 284.867 368.067 307.458 340.458 307.458ZM236.051 257.311C228.697 281.43 208.543 299.716 183.992 305.903C179.932 306.93 175.75 307.458 171.562 307.458C143.96 307.458 121.238 284.86 121.238 257.411C121.238 229.962 143.96 207.372 171.562 207.372C177.492 207.372 183.374 208.413 188.94 210.449C210.331 218.564 227.399 235.101 236.051 256.157V257.311ZM340.874 170.667C330.932 170.667 321.084 172.388 311.733 175.745C289.165 183.607 269.657 198.329 255.99 217.823C242.343 198.322 222.841 183.6 200.274 175.739C190.93 172.382 181.081 170.667 171.146 170.667C124.068 170.667 85.3333 209.187 85.3333 256.003C85.3333 302.813 124.068 341.333 171.132 341.333C176.12 341.333 181.095 340.9 186.022 340.045L192.126 338.604C218.015 330.742 240.508 314.505 256.003 292.462C271.499 314.492 293.985 330.742 319.88 338.59L325.984 340.032C330.892 340.899 335.886 341.327 340.874 341.333C387.932 341.333 426.667 302.813 426.667 256.003C426.667 209.194 387.932 170.667 340.874 170.667Z" fill="#FF272C"/>
</g>
</svg>
