<?xml version="1.0" encoding="utf-8"?>
<!-- Generator: Adobe Illustrator 12.0.0, SVG Export Plug-In . SVG Version: 6.00 Build 51448)  -->
<!DOCTYPE svg PUBLIC "-//W3C//DTD SVG 1.1//EN" "http://www.w3.org/Graphics/SVG/1.1/DTD/svg11.dtd" [
	<!ENTITY ns_svg "http://www.w3.org/2000/svg">
	<!ENTITY ns_xlink "http://www.w3.org/1999/xlink">
]>
<svg  version="1.1" id="Layer_1" xmlns="&ns_svg;" xmlns:xlink="&ns_xlink;" width="252.326" height="91.861"
	 viewBox="0 0 252.326 91.861" overflow="visible" enable-background="new 0 0 252.326 91.861" xml:space="preserve">
<g>
	<g>
		<path fill="#FFFFFF" d="M153.975,57.521c0,1.814-0.857,3.135-2.606,3.894l-2.442,1.089c-0.561,0.231-0.824,0.561-0.824,1.057
			v2.178c0,1.947,0.924,2.97,2.342,2.97c1.42,0,2.344-1.022,2.344-2.97v-1.617c0-0.33,0.197-0.495,0.594-0.495
			s0.594,0.165,0.594,0.495v1.617c0,2.508-1.386,4.025-3.531,4.025c-2.145,0-3.53-1.518-3.53-4.025v-9.702
			c0-2.508,1.386-4.026,3.53-4.026c2.146,0,3.531,1.519,3.531,4.026V57.521z M148.102,61.91c0.164-0.23,0.428-0.43,0.824-0.594
			l2.014-0.924c1.221-0.562,1.848-1.551,1.848-3.037v-1.319c0-1.946-0.924-2.97-2.344-2.97c-1.418,0-2.342,1.023-2.342,2.97V61.91z"
			/>
		<path fill="#FFFFFF" d="M162.885,56.036c0-1.946-0.924-2.97-2.344-2.97c-1.418,0-2.342,1.023-2.342,2.97V69.17
			c0,0.297-0.199,0.463-0.595,0.463s-0.594-0.166-0.594-0.463V56.036c0-2.508,1.386-4.026,3.53-4.026
			c2.146,0,3.531,1.519,3.531,4.026V69.17c0,0.297-0.197,0.463-0.594,0.463s-0.594-0.166-0.594-0.463V56.036z"/>
		<path fill="#FFFFFF" d="M171.234,69.764c-1.815,0-2.871-1.254-2.871-3.465V53.463h-1.717c-0.363,0-0.527-0.166-0.527-0.529
			c0-0.362,0.164-0.527,0.527-0.527h1.717v-4.917c0-0.33,0.197-0.495,0.594-0.495c0.396,0,0.594,0.165,0.594,0.495v4.917h3.003
			c0.363,0,0.562,0.165,0.562,0.527c0,0.363-0.198,0.529-0.562,0.529h-3.003v12.836c0,1.617,0.561,2.409,1.684,2.409
			c0.527,0,0.989-0.231,1.353-0.692c0.231-0.297,0.495-0.297,0.792,0c0.23,0.23,0.23,0.461,0,0.758
			C172.818,69.434,172.125,69.764,171.234,69.764z"/>
		<path fill="#FFFFFF" d="M182.322,57.521c0,1.814-0.858,3.135-2.607,3.894l-2.442,1.089c-0.562,0.231-0.825,0.561-0.825,1.057
			v2.178c0,1.947,0.924,2.97,2.344,2.97c1.418,0,2.343-1.022,2.343-2.97v-1.617c0-0.33,0.198-0.495,0.594-0.495
			s0.595,0.165,0.595,0.495v1.617c0,2.508-1.387,4.025-3.531,4.025c-2.146,0-3.531-1.518-3.531-4.025v-9.702
			c0-2.508,1.386-4.026,3.531-4.026c2.145,0,3.531,1.519,3.531,4.026V57.521z M176.447,61.91c0.166-0.23,0.43-0.43,0.825-0.594
			l2.013-0.924c1.222-0.562,1.849-1.551,1.849-3.037v-1.319c0-1.946-0.925-2.97-2.343-2.97c-1.42,0-2.344,1.023-2.344,2.97V61.91z"
			/>
		<path fill="#FFFFFF" d="M188.889,53.066c-1.42,0-2.344,1.023-2.344,2.97v13.101c0,0.33-0.197,0.496-0.594,0.496
			s-0.594-0.166-0.594-0.496V56.003c0-2.508,1.386-3.993,3.531-3.993c1.418,0,2.475,0.627,3.135,1.848
			c0.165,0.33,0.066,0.562-0.23,0.727c-0.363,0.23-0.595,0.165-0.76-0.132C190.538,53.528,189.813,53.066,188.889,53.066z"/>
		<path fill="#FFFFFF" d="M200.834,65.738c0,2.508-1.418,4.025-3.365,4.025c-1.155,0-2.014-0.494-2.508-1.518v7.887
			c0,0.33-0.199,0.495-0.595,0.495s-0.594-0.165-0.594-0.495V56.036c0-2.508,1.386-4.026,3.53-4.026
			c2.146,0,3.531,1.519,3.531,4.026V65.738z M199.646,56.036c0-1.946-0.924-2.97-2.344-2.97c-1.418,0-2.342,1.023-2.342,2.97v9.702
			c0,1.947,0.924,2.97,2.342,2.97c1.552,0,2.344-1.221,2.344-2.903V56.036z"/>
		<path fill="#FFFFFF" d="M207.401,53.066c-1.419,0-2.343,1.023-2.343,2.97v13.101c0,0.33-0.198,0.496-0.594,0.496
			c-0.396,0-0.594-0.166-0.594-0.496V56.003c0-2.508,1.385-3.993,3.53-3.993c1.419,0,2.476,0.627,3.136,1.848
			c0.164,0.33,0.065,0.562-0.231,0.727c-0.363,0.23-0.595,0.165-0.759-0.132C209.051,53.528,208.326,53.066,207.401,53.066z"/>
		<path fill="#FFFFFF" d="M212.549,46.467c0-0.43,0.199-0.627,0.628-0.627s0.627,0.197,0.627,0.627v1.484
			c0,0.43-0.198,0.627-0.627,0.627s-0.628-0.197-0.628-0.627V46.467z M212.582,52.637c0-0.33,0.199-0.494,0.595-0.494
			s0.594,0.164,0.594,0.494v16.5c0,0.33-0.198,0.496-0.594,0.496s-0.595-0.166-0.595-0.496V52.637z"/>
		<path fill="#FFFFFF" d="M217.004,64.848c0-0.33,0.198-0.496,0.594-0.496c0.396,0,0.594,0.166,0.594,0.496v0.891
			c0,1.98,0.924,2.97,2.344,2.97c1.451,0,2.376-0.989,2.376-2.97v-0.924c0-1.551-0.628-2.641-1.914-3.268l-0.825-0.396
			c-2.211-1.089-3.068-2.079-3.068-4.488v-0.627c0-2.541,1.287-4.026,3.432-4.026S224,53.528,224,56.036v0.957
			c0,0.297-0.198,0.462-0.594,0.462c-0.396,0-0.594-0.165-0.594-0.462v-0.957c0-1.979-0.858-2.97-2.277-2.97
			c-1.485,0-2.244,0.99-2.244,3.003v0.627c0,1.716,0.561,2.442,2.408,3.366l0.727,0.363c1.947,0.957,2.674,2.178,2.674,4.422v0.924
			c0,2.508-1.42,3.992-3.564,3.992s-3.531-1.484-3.531-3.992V64.848z"/>
		<path fill="#FFFFFF" d="M233.934,57.521c0,1.814-0.858,3.135-2.607,3.894l-2.442,1.089c-0.562,0.231-0.825,0.561-0.825,1.057
			v2.178c0,1.947,0.924,2.97,2.344,2.97c1.418,0,2.343-1.022,2.343-2.97v-1.617c0-0.33,0.198-0.495,0.594-0.495
			s0.595,0.165,0.595,0.495v1.617c0,2.508-1.387,4.025-3.531,4.025c-2.146,0-3.531-1.518-3.531-4.025v-9.702
			c0-2.508,1.386-4.026,3.531-4.026c2.145,0,3.531,1.519,3.531,4.026V57.521z M228.059,61.91c0.166-0.23,0.43-0.43,0.825-0.594
			l2.013-0.924c1.222-0.562,1.849-1.551,1.849-3.037v-1.319c0-1.946-0.925-2.97-2.343-2.97c-1.42,0-2.344,1.023-2.344,2.97V61.91z"
			/>
	</g>
	<g>
		<path fill="#FFFFFF" d="M75.447,27.66h-5.192v-6.761h5.104c2.511,0,4.068,1.127,4.068,3.339c0,2.21-1.472,3.425-3.98,3.425V27.66z
			 M79.645,31.347c3.095-1.026,4.977-3.964,4.977-7.284c0-1.368-0.452-3.697-1.818-5.16c-1.88-1.789-4.42-2.715-7.01-2.557H65.104
			v23.453h5.15v-7.586h3.98l5.106,7.5h6.015L79.645,31.347z M104.157,29.912l-3.115-7.628l-3.114,7.628H104.157z M52.066,30.173
			l-3.115-7.63l-3.115,7.631L52.066,30.173L52.066,30.173z M161.223,16.346v4.639h-7.139v18.724h-5.146V20.984h-6.924v-4.64
			L161.223,16.346L161.223,16.346z M103.55,16.087l10.039,23.621h-5.407l-2.164-5.243h-9.906l-2.164,5.243h-5.236l10.038-23.621
			h4.803H103.55z M222.582,16.346v18.638l11.467,0.044v4.769h-16.83V16.345L222.582,16.346L222.582,16.346z M132.884,30.735
			l-0.129-14.39h4.932v23.362h-4.324l-11.25-14.909v14.997h-5.063V16.345h4.759l11.075,14.389V30.735z M37.703,16.346v4.639h-7.14
			v18.854h-5.147V21.114h-7.14v-4.77L37.703,16.346L37.703,16.346z M51.462,16.346l10.037,23.623h-5.408l-2.164-5.244H44.02
			l-2.164,5.244H36.62l10.038-23.624L51.462,16.346L51.462,16.346z"/>
		<path fill="#FF272C" d="M200.879,35.73c-0.623,0-1.244-0.079-1.849-0.233c-3.652-0.928-6.649-3.667-7.745-7.281v-0.173
			c1.289-3.154,3.825-5.633,7.01-6.849c0.828-0.305,1.703-0.461,2.584-0.461c4.107,0,7.484,3.384,7.484,7.498
			C208.363,32.345,204.986,35.73,200.879,35.73L200.879,35.73z M185.348,28.216c-1.094,3.614-4.092,6.354-7.744,7.281
			c-0.604,0.154-1.226,0.233-1.849,0.233c-4.106,0-7.486-3.386-7.486-7.499s3.38-7.498,7.486-7.498c0.882,0,1.757,0.156,2.585,0.461
			c3.182,1.216,5.721,3.694,7.008,6.849V28.216z M200.941,15.233c-1.479,0-2.944,0.258-4.335,0.761
			c-3.357,1.178-6.259,3.384-8.292,6.305c-2.03-2.922-4.931-5.128-8.288-6.306c-1.39-0.503-2.855-0.76-4.333-0.76
			c-7.003,0-12.765,5.772-12.765,12.787c0,7.014,5.762,12.786,12.763,12.786c0.742,0,1.482-0.065,2.215-0.193l0.908-0.216
			c3.851-1.178,7.197-3.611,9.502-6.914c2.305,3.301,5.65,5.736,9.502,6.912l0.908,0.216c0.73,0.13,1.473,0.194,2.215,0.195
			c7,0,12.762-5.772,12.762-12.786C213.703,21.006,207.941,15.233,200.941,15.233z"/>
	</g>
</g>
</svg>
